<svg version="1.0" xmlns="http://www.w3.org/2000/svg"
 width="512.000000pt" height="512.000000pt" viewBox="0 0 512.000000 512.000000"
 preserveAspectRatio="xMidYMid meet">

<g transform="translate(0.000000,512.000000) scale(0.100000,-0.100000)"
fill="#000000" stroke="none">
<path d="M2954 4984 c-326 -54 -708 -342 -861 -649 -50 -99 -113 -308 -113
-373 0 -28 -75 -139 -164 -241 -215 -248 -493 -408 -1116 -640 -310 -115 -445
-177 -497 -226 -39 -38 -43 -46 -43 -89 0 -46 3 -51 71 -119 38 -38 77 -83 84
-98 23 -44 76 -91 130 -114 57 -25 373 -106 515 -132 131 -24 357 -24 470 0
211 45 507 161 848 330 125 63 257 126 293 141 l66 28 84 -30 c100 -35 96 -26
105 -247 10 -241 -27 -415 -186 -875 -194 -561 -222 -646 -251 -758 -52 -203
-72 -348 -73 -542 0 -100 5 -213 13 -263 l13 -87 1199 0 1198 0 -60 82 c-73
102 -170 294 -204 408 l-26 85 6 -70 c7 -85 53 -225 102 -314 l37 -66 -53 45
c-117 97 -183 200 -222 345 -44 162 -25 443 41 618 l22 58 96 -99 c113 -115
199 -185 337 -275 93 -60 283 -167 298 -167 4 0 7 286 7 635 0 349 -2 635 -5
635 -3 0 -31 -13 -63 -29 -55 -28 -61 -29 -167 -24 -102 5 -366 -16 -408 -33
-10 -3 -17 -2 -17 4 0 19 91 88 221 168 72 43 145 92 162 107 l32 28 -75 -5
c-92 -7 -158 -28 -322 -107 -70 -34 -133 -59 -139 -57 -29 10 137 158 301 269
59 40 86 51 197 77 70 17 155 34 188 37 80 9 95 14 95 32 0 12 -9 14 -52 8
-198 -25 -478 -110 -667 -201 -173 -83 -278 -154 -388 -261 -31 -29 -57 -52
-58 -51 -10 9 -36 173 -45 274 -11 128 -2 311 26 520 8 65 28 219 44 340 28
217 29 223 63 270 80 112 150 287 178 444 20 109 17 373 -5 484 -35 178 -95
331 -168 425 l-34 44 52 49 c70 66 103 146 42 104 -31 -22 -41 -20 -28 5 16
29 7 34 -44 19 -88 -24 -210 -9 -422 53 -295 86 -465 104 -660 71z m406 -39
c84 -16 392 -106 385 -113 -2 -2 -77 4 -167 14 -238 26 -521 24 -655 -4 -382
-82 -668 -304 -802 -622 -24 -56 -35 -70 -60 -70 -18 0 -10 29 38 139 50 117
116 214 207 306 190 192 450 335 660 364 92 13 288 6 394 -14z m68 -294 c19
-5 5 -15 -86 -59 -182 -87 -253 -167 -339 -381 -42 -105 -43 -106 -37 -51 15
141 71 277 150 368 87 99 217 150 312 123z m-7 -264 c19 -12 44 -42 57 -65
l23 -42 -73 0 c-118 -1 -195 -45 -245 -145 -35 -68 -37 -160 -4 -227 28 -59
101 -124 155 -140 23 -6 42 -12 44 -13 1 -1 -5 -16 -15 -34 -30 -53 -145 -77
-220 -46 -90 38 -116 92 -116 240 0 190 40 309 137 406 88 89 186 114 257 66z
m-33 -203 c27 -18 30 -69 5 -96 -35 -39 -113 -10 -113 43 0 57 60 87 108 53z
m-1213 -201 c74 -151 143 -167 335 -78 60 27 125 50 153 53 45 4 49 3 91 -39
36 -37 45 -53 51 -94 9 -69 51 -248 76 -321 16 -51 31 -73 89 -128 72 -70 106
-89 180 -101 54 -9 76 -19 113 -53 31 -30 35 -62 9 -85 -9 -9 -70 -27 -135
-41 -228 -50 -531 -159 -977 -353 -543 -237 -770 -300 -1111 -310 -150 -4
-207 -2 -290 12 -57 9 -108 20 -112 25 -17 15 59 201 129 317 24 39 44 73 44
76 0 7 -126 -13 -198 -33 -113 -31 -191 -71 -268 -138 l-71 -62 -52 55 c-42
45 -51 60 -51 90 0 82 89 128 663 340 312 115 584 251 742 370 118 89 264 243
358 378 48 69 103 139 123 157 52 45 73 38 109 -37z m1491 -205 c-56 -57 -142
-152 -190 -212 -65 -80 -91 -105 -97 -95 -14 22 -11 80 7 139 33 111 237 265
356 269 24 1 16 -10 -76 -101z m-359 -710 c-12 -91 -61 -118 -257 -143 -147
-18 -320 -59 -415 -99 -33 -13 -174 -81 -314 -150 -280 -138 -438 -208 -611
-267 -202 -70 -298 -90 -465 -96 -160 -6 -222 1 -415 43 -186 41 -190 42 -190
65 0 15 5 19 15 15 92 -35 469 -43 635 -13 258 47 463 117 890 302 399 173
764 305 945 340 72 14 139 32 150 39 29 20 38 9 32 -36z m624 -1329 c-32 -74
-100 -233 -151 -354 -50 -121 -114 -262 -141 -314 -174 -332 -392 -532 -638
-587 -204 -46 -447 26 -581 172 -38 41 -41 49 -35 82 10 57 56 252 60 252 2 0
16 -24 33 -52 37 -67 127 -152 189 -180 38 -17 67 -22 139 -23 84 0 95 2 166
37 130 65 224 164 495 523 242 320 449 572 460 561 5 -5 1 -13 -48 -81 -11
-16 8 0 42 36 35 36 65 65 67 64 1 -1 -24 -62 -57 -136z"/>
<path d="M2374 3564 c-98 -51 -226 -159 -275 -231 -49 -71 -37 -77 74 -41 89
29 140 73 167 144 31 85 49 114 75 126 24 11 34 28 16 28 -4 0 -30 -12 -57
-26z"/>
</g>
</svg>
