<svg xmlns="http://www.w3.org/2000/svg" height="40px" viewBox="0 -960 960 960" width="40px" fill="#1f1f1f"><path d="M242.57-100q-25.79 0-44.18-18.39T180-162.57v-409.07q0-25.79 18.39-44.18 18.39-18.38 44.18-18.38h126.25v50.25H242.57q-4.62 0-8.47 3.85-3.84 3.84-3.84 8.46v409.07q0 4.62 3.84 8.47 3.85 3.84 8.47 3.84h474.86q4.62 0 8.47-3.84 3.84-3.85 3.84-8.47v-409.07q0-4.62-3.84-8.46-3.85-3.85-8.47-3.85H590.36v-50.25h127.07q25.79 0 44.18 18.38Q780-597.43 780-571.64v409.07q0 25.79-18.39 44.18T717.43-100H242.57Zm211.89-243.13v-446.1l-85.64 85.64-36.05-36 146.82-146.56 146.56 146.56-35.79 36-85.64-85.64v446.1h-50.26Z"/></svg>