<svg xmlns="http://www.w3.org/2000/svg" height="40px" viewBox="0 0 40 40" width="40px" fill="#1f1f1f"><path d="M10.1,35.8c-0.7,0-1.3-0.3-1.8-0.8c-0.5-0.5-0.8-1.1-0.8-1.8v-17c0-0.7,0.3-1.3,0.8-1.8,c0.5-0.5,1.1-0.8,1.8-0.8h5.3v2.1h-5.3c-0.1,0-0.2,0.1-0.4,0.2c-0.1,0.1-0.2,0.2-0.2,0.4v17c0,0.1,0.1,0.2,0.2,0.4,c0.1,0.1,0.2,0.2,0.4,0.2h19.8c0.1,0,0.2-0.1,0.4-0.2c0.1-0.1,0.2-0.2,0.2-0.4v-17c0-0.1-0.1-0.2-0.2-0.4c-0.1-0.1-0.2-0.2-0.4-0.2,h-5.3v-2.1h5.3c0.7,0,1.3,0.3,1.8,0.8c0.5,0.5,0.8,1.1,0.8,1.8v17c0,0.7-0.3,1.3-0.8,1.8c-0.5,0.5-1.1,0.8-1.8,0.8H10.1z M21,3.1,v18.6l3.6-3.6l1.5,1.5L20,25.7l-6.1-6.1l1.5-1.5l3.6,3.6V3.1C18.9,3.1,21,3.1,21,3.1z"/></svg>
