<svg version="1.0" xmlns="http://www.w3.org/2000/svg"
 width="361.000000pt" height="360.000000pt" viewBox="0 0 361.000000 360.000000"
 preserveAspectRatio="xMidYMid meet">
<rect width="100%" height="100%" fill="#fff86e"/> 
<g transform="translate(0.000000,360.000000) scale(0.100000,-0.100000)"
fill="#000000" stroke="none">
<path d="M1755 3424 c-472 -69 -984 -438 -1204 -869 -54 -106 -116 -291 -142
-424 -12 -58 -28 -119 -36 -135 -42 -83 -233 -318 -324 -400 -28 -25 -49 -51
-47 -57 5 -16 204 195 286 304 37 51 94 126 125 168 99 133 161 174 201 134 8
-9 32 -47 52 -85 47 -90 107 -146 166 -155 55 -8 138 13 261 66 103 44 208 79
241 79 33 0 90 -44 123 -94 23 -35 35 -73 53 -168 24 -130 76 -327 103 -391
20 -47 134 -166 197 -207 26 -17 85 -40 131 -51 103 -26 128 -38 168 -84 33
-38 37 -55 20 -86 -13 -26 -35 -34 -219 -79 -354 -88 -622 -186 -1295 -473
-187 -79 -401 -167 -475 -195 -91 -34 -136 -56 -138 -67 -3 -13 1 -15 20 -10
64 19 342 130 578 230 651 277 1006 407 1285 470 66 15 154 37 195 50 84 26
93 22 84 -35 -18 -109 -80 -149 -274 -180 -485 -78 -525 -91 -1040 -343 -324
-159 -478 -229 -645 -293 -96 -38 -105 -43 -72 -44 60 0 291 99 727 312 157
77 314 151 348 165 l64 26 91 -32 c51 -17 102 -42 115 -54 30 -30 42 -107 43
-279 l1 -138 723 0 723 0 6 78 c9 99 91 756 111 884 19 120 15 110 96 246 103
172 174 368 204 562 17 111 19 364 4 511 -24 244 -123 521 -241 677 l-40 53
76 79 c93 98 118 162 47 126 -40 -21 -41 -21 -34 15 6 31 5 32 -23 25 -16 -4
-81 -10 -145 -13 -135 -6 -191 4 -464 79 -300 83 -394 99 -600 103 -99 2 -193
1 -210 -1z m450 -58 c91 -16 446 -113 507 -140 44 -19 26 -19 -145 0 -305 34
-744 33 -907 -1 -328 -68 -601 -214 -811 -432 -104 -107 -171 -205 -244 -355
-55 -111 -75 -138 -103 -138 -21 0 -11 41 37 153 100 235 229 405 435 571 250
202 503 322 761 360 60 9 383 -3 470 -18z m103 -392 c12 -4 22 -10 22 -14 0
-5 -51 -34 -112 -65 -254 -129 -339 -223 -454 -502 -26 -64 -50 -110 -52 -103
-7 21 18 158 43 231 49 143 117 253 207 334 102 92 253 143 346 119z m-23
-343 c42 -19 94 -71 120 -121 9 -17 14 -30 13 -31 -2 0 -41 -3 -87 -5 -184 -8
-273 -65 -343 -219 -17 -38 -22 -68 -22 -130 0 -90 20 -146 76 -217 39 -50
134 -113 183 -122 19 -4 35 -10 35 -14 0 -24 -45 -73 -84 -92 -143 -69 -317
-10 -363 123 -24 70 -24 317 0 427 42 188 172 351 325 406 51 18 100 17 147
-5z m-7 -291 c30 -29 30 -89 0 -117 -34 -30 -55 -34 -93 -19 -57 24 -72 82
-34 130 27 34 94 37 127 6z m482 -406 c0 -3 -55 -63 -121 -132 -67 -70 -163
-177 -215 -238 -126 -151 -155 -179 -165 -162 -25 39 2 183 47 252 64 97 222
219 338 262 58 22 116 31 116 18z"/>
<path d="M898 1506 c-168 -95 -353 -269 -373 -349 -9 -35 8 -35 112 -2 143 45
201 99 254 236 16 44 39 79 72 112 63 61 39 63 -65 3z"/>
</g>
</svg>
